PathFileType	4	(X/Y/Z)	C:/Users/opensim2020/Desktop/walking_exp_matlab/subject01_walking10_straight_04.trc																																																																																																																															
DataRate	CameraRate	NumFrames	NumMarkers	Units	OrigDataRate	OrigDataStartFrame	OrigNumFrames																																																																																																																											
100	100	5	43	mm	100	3924	274																																																																																																																											
Frame#	Time	LFHD			RFHD			LBHD			RBHD			C7			T10			CLAV			STRN			RBAK			LSHO			LUPA			LELB			LFRM			LWRA			LWRB			LFIN			RSHO			RUPA			RELB			RFRM			RWRA			RWRB			RFIN			LASI			RASI			LPSI			RPSI			LTHI			LKNE			LTIB			LANK			LHEE			LTOE			RTHI			RKNE			RTIB			RANK			RHEE			RTOE			*39			*40			*41			*42		
		X1	Y1	Z1	X2	Y2	Z2	X3	Y3	Z3	X4	Y4	Z4	X5	Y5	Z5	X6	Y6	Z6	X7	Y7	Z7	X8	Y8	Z8	X9	Y9	Z9	X10	Y10	Z10	X11	Y11	Z11	X12	Y12	Z12	X13	Y13	Z13	X14	Y14	Z14	X15	Y15	Z15	X16	Y16	Z16	X17	Y17	Z17	X18	Y18	Z18	X19	Y19	Z19	X20	Y20	Z20	X21	Y21	Z21	X22	Y22	Z22	X23	Y23	Z23	X24	Y24	Z24	X25	Y25	Z25	X26	Y26	Z26	X27	Y27	Z27	X28	Y28	Z28	X29	Y29	Z29	X30	Y30	Z30	X31	Y31	Z31	X32	Y32	Z32	X33	Y33	Z33	X34	Y34	Z34	X35	Y35	Z35	X36	Y36	Z36	X37	Y37	Z37	X38	Y38	Z38	X39	Y39	Z39	X40	Y40	Z40	X41	Y41	Z41	X42	Y42	Z42	X43	Y43	Z43
																																																																																																																																		
103	1.02	-360.7648	1663.90002	1041.40027	-313.5647	1668.54883	1146.10925	-471.97906	1629.39807	1086.32373	-425.92804	1634.6106	1197.99536	-508.56653	1424.72827	1121.75171	-539.16351	1133.16553	1129.32446	-364.28912	1360.99756	1110.67664	-318.37598	1206.73792	1106.48535	-553.33783	1231.16028	1205.12146	-436.95325	1389.98071	953.8623	-488.01239	1205.00562	878.19452	-518.58282	1059.73474	888.18585	-506.89398	947.94165	861.16687	-454.58057	817.23578	873.66956	-511.02701	825.32947	854.53662	-482.17816	744.86707	844.30695	-416.26102	1389.78882	1265.94885	-448.58963	1188.6687	1375.45227	-432.59674	1065.59705	1384.81873	-383.26709	956.71289	1418.8103	-281.89969	857.40314	1403.24146	-324.27161	851.22852	1442.3783	-272.67252	782.63422	1444.26099	-366.7666	927.48071	1017.4613	-369.2403	924.22321	1236.01453	-553.66602	939.8053	1066.13037	-553.45685	947.28448	1210.18005	-335.37762	606.19818	947.87744	-308.68808	477.14908	967.78381	-299.54065	291.78601	956.23822	-236.55539	77.2879	1002.39081	-260.3779	35.55251	1062.01331	-90.89385	85.41193	981.66193	-474.79614	599.10986	1282.43689	-498.6889	440.41553	1255.52429	-589.25629	287.92972	1258.26929	-659.56964	92.55099	1204.51135	-713.56628	63.73886	1153.03162	-525.39001	37.53304	1199.4469	-328.57776	1703.31409	1126.96106	-1972.95593	1023.8949	3101.98926	-2012.5282	1021.99866	3140.52515	NaN	NaN	NaN
104	1.03	-354.35306	1663.30603	1039.08521	-307.42365	1667.96863	1144.00403	-465.81738	1628.66968	1083.95361	-419.77863	1633.91187	1195.73096	-501.79498	1423.60303	1119.60864	-531.52161	1132.0188	1127.58484	-357.30331	1360.36365	1108.85376	-310.95068	1206.18701	1104.92383	-546.14282	1230.05249	1203.21069	-429.89459	1388.86755	951.87128	-480.52081	1203.69128	876.23914	-510.84991	1058.49841	886.61792	-499.24716	946.68353	859.87488	-447.29333	815.79968	872.68286	-503.63644	824.02838	853.48236	-475.00116	743.4801	843.41614	-409.64368	1389.17578	1264.00269	-442.19733	1187.89429	1373.30566	-426.04889	1064.9668	1382.90259	-377.14877	955.95978	1417.08716	-275.98911	856.12878	1401.78809	-318.58737	850.30072	1440.87695	-267.24326	781.53162	1443.03784	-358.22055	926.67676	1016.46265	-361.5654	923.49091	1235.04712	-545.3548	938.74445	1064.40234	-545.60486	946.60919	1208.36975	-325.02716	606.13403	948.43195	-298.85849	476.79004	967.71423	-292.30194	290.65671	955.84344	-233.13362	75.59787	1002.42993	-258.5481	35.05514	1061.76477	-87.56395	81.41084	982.56311	-468.74493	598.7724	1281.96033	-493.47501	439.94632	1255.05737	-585.76447	288.49774	1257.74805	-658.36401	93.95518	1204.47424	-713.43799	65.83823	1153.24622	-525.23761	37.51256	1199.47778	-322.53055	1702.53442	1124.77991	-1973.09546	1023.82123	3101.8728	-2012.53052	1022.091	3140.57007	NaN	NaN	NaN
105	1.04	-348.05533	1662.58264	1036.81677	-301.26642	1667.42224	1141.84082	-459.24023	1627.62769	1081.32813	-413.69983	1633.31311	1193.32446	-495.04694	1422.42102	1117.41089	-523.76849	1130.84094	1125.71631	-350.32993	1359.74463	1106.92004	-303.38245	1205.73108	1103.23413	-538.94806	1228.95544	1201.224	-422.827	1387.78333	949.72815	-472.90744	1202.35156	874.40338	-502.97568	1057.16907	885.00488	-491.34464	945.3418	858.53796	-439.50421	814.40906	871.65784	-495.84366	822.71466	852.33386	-467.34506	742.04242	842.58466	-402.97711	1388.47864	1262.00232	-435.74707	1187.24695	1371.31921	-419.56403	1064.35583	1380.92468	-371.04788	955.2168	1415.32434	-270.34143	855.10028	1400.34741	-313.02133	849.31262	1439.10645	-261.84155	780.45697	1441.44836	-349.50317	925.86987	1015.40863	-353.70633	922.75482	1234.05115	-536.89368	937.74487	1062.61304	-537.75537	946.00647	1206.55054	-314.36945	605.85632	948.91333	-289.17783	476.40091	967.69977	-285.45303	289.38757	955.63593	-230.82106	73.30466	1002.76709	-257.35898	33.83385	1061.82715	-84.9603	76.57999	983.82233	-462.49091	598.29315	1280.75574	-487.97559	439.40088	1254.46497	-582.15717	289.21753	1257.36133	-657.52765	95.43047	1204.74854	-712.60468	68.06852	1153.57788	-525.03076	37.51755	1199.4939	-316.29672	1701.93372	1122.48267	-1973.00684	1024.04785	3102.0376	-2012.41589	1021.91095	3140.77173	NaN	NaN	NaN
106	1.05	-341.52249	1661.66919	1034.59583	-295.09238	1666.8927	1139.67334	-453.01874	1626.94189	1078.70569	-407.61859	1632.69409	1190.98291	-488.19507	1421.36536	1115.22522	-515.74744	1129.61169	1123.79028	-343.27582	1359.13794	1104.8833	-295.74606	1205.36621	1101.50745	-531.62939	1227.82214	1199.12976	-415.78812	1386.74976	947.52216	-465.06766	1200.99536	872.43665	-494.92618	1055.78418	883.37335	-483.24902	944.00177	857.03528	-431.47144	813.06555	870.50189	-487.67841	821.35468	850.95966	-459.17383	740.59961	841.53271	-396.29572	1387.87109	1259.83545	-429.31805	1186.66235	1369.20166	-413.16418	1063.7356	1378.83691	-365.09149	954.45062	1413.46716	-264.74854	853.81525	1398.79846	-307.59109	848.36279	1437.66602	-256.74887	779.26282	1439.9436	-340.5332	925.18878	1014.40131	-344.5556	922.39148	1232.90015	-528.3205	936.80542	1060.63342	-529.71069	945.30334	1204.59656	-304.16708	605.58093	949.42493	-279.61414	476.01987	967.61481	-278.95401	288.02264	955.78931	-228.96175	71.86289	1003.93658	-256.50714	33.81014	1062.91614	-82.79712	70.63107	984.83875	-455.86789	597.78876	1280.19922	-482.32648	439.1456	1253.99622	-578.45343	290.00751	1256.94275	-656.46112	97.24993	1205.03198	-712.02264	70.47235	1153.9043	-524.77454	37.57129	1199.67249	-310.12109	1701.3606	1120.17468	-1973.08801	1023.39734	3101.98975	-2012.44531	1022.01312	3140.64404	NaN	NaN	NaN
107	1.06	-335.00403	1661.26782	1032.1272	-288.86826	1666.61853	1137.33752	-446.59875	1626.28223	1075.90015	-401.53268	1632.24902	1188.35962	-481.64474	1420.25574	1112.60059	-507.7851	1128.54492	1121.80725	-336.15106	1358.73669	1102.77039	-287.98264	1205.13306	1099.73474	-524.22266	1226.74866	1196.84729	-408.57974	1385.76953	945.21014	-457.37354	1199.64355	870.42999	-486.74463	1054.42944	881.60431	-474.82883	942.6214	855.45947	-422.96085	811.71979	869.36877	-479.26953	819.9859	849.79657	-450.69037	739.17828	840.54138	-389.68182	1387.30164	1257.4425	-422.84338	1186.13989	1366.98657	-406.81436	1063.23193	1376.74146	-359.27673	953.83282	1411.58289	-259.3045	852.65271	1397.19543	-302.25302	847.4032	1435.94067	-251.81038	778.1853	1438.39282	-331.78049	924.44952	1013.5199	-336.59998	921.71765	1231.82007	-519.8443	936.04779	1058.4917	-521.65082	944.75519	1202.6814	-294.54059	605.20612	949.9787	-270.40195	475.81601	967.23193	-272.91553	287.14124	956.14117	-226.20537	71.58514	1004.54883	-254.80161	34.78873	1063.422	-79.73282	65.32734	985.6217	-449.14438	597.52979	1279.15259	-476.39606	438.71579	1253.33533	-574.58838	290.8963	1256.3009	-655.17365	98.89352	1205.11218	-711.11749	73.06488	1154.28101	-524.4621	37.73965	1199.72717	-303.92764	1701.11548	1117.86975	-1972.99097	1023.38379	3101.90869	-2012.49048	1022.11127	3140.73291	NaN	NaN	NaN
